<svg width="177" height="222" viewBox="0 0 177 222" fill="none" xmlns="http://www.w3.org/2000/svg">
<path d="M61.8545 3.39372C67.2124 -2.00941 73.8905 0.280892 81.2781 1.85063C87.7382 3.22277 93.6597 7.08478 97.2979 12.6005C97.318 14.6373 101.747 21.3748 103.518 22.4725L103.24 22.9722C107.533 28.9405 112.345 48.5145 112.747 56.1017C129.348 56.157 149.12 40.168 165.511 46.6109C166.675 47.898 169.065 50.2909 168.589 51.8068C164.482 64.8906 151.639 78.9268 148.488 92.2987C152.172 105.484 181.408 126.647 175.397 137.25C173.667 140.302 169.061 142.433 165.797 143.23C156.523 145.496 135.538 139.556 125.956 137.381C119.905 151.85 110.851 171.684 121.889 185.839C125.175 185.681 130.841 185.166 130.862 190.211C130.889 196.619 118.165 213.434 111.123 209.194C106.858 204.002 112.688 193.866 117.002 189.826C105.589 175.229 111.064 159.768 117.809 143.526C118.476 141.921 122.748 137.997 122.415 136.696C109.676 132.156 79.9876 201.446 75.0458 154.282C62.7667 161.871 58.7997 172.318 53.6361 184.659C44.7493 205.896 71.7396 201.57 60.5448 214.395C46.9929 229.921 30.9477 219.042 50.5305 205.277C47.2901 200.909 44.9716 195.418 46.1998 189.922C49.3969 175.618 59.3695 156.025 74.4649 151.699C73.7558 146.076 72.6272 134.059 70.539 129.181C63.2365 122.998 51.7939 118.973 42.4987 116.606C17.9354 110.352 34.4523 100.642 47.699 93.0464C42.5656 85.6442 39.7235 76.5541 29.5573 75.0406C19.7499 73.581 13.0321 77.7563 7.19989 85.0102C10.7515 92.4144 11.4284 105 5.03063 105C-0.96875 105 -1.96913 93.6362 4.03152 82.5C9.53877 72.2794 27.457 68.0799 38.3385 72.3411C45.0531 74.9702 49.5055 83.4409 52.1062 89.7988C55.1871 89.6605 63.1118 83.1568 65.4614 80.8988C67.783 68.007 62.9549 47.7427 63.0308 34.2586C63.1153 31.9201 63.7223 29.1486 65.1104 27.2239C70.4953 19.7558 82.5902 31.9925 87.1599 35.6946L105.933 50.9073C101.741 35.1621 95.52 11.0136 78.4119 5.28324C74.7792 9.00396 74.4413 12.0298 71.5932 15.4534C69.4909 17.7285 62.7406 21.9355 59.546 21.4216C46.9416 19.3938 56.8567 8.43366 61.8545 3.39372Z" fill="#FFE564"/>
<path d="M80.1707 94C90.9245 94.9306 91.5775 107.873 80.5374 111.864C70.9459 113.527 68.9672 99.5103 80.1707 94Z" fill="#141438"/>
<path d="M119.783 74.0487C133.798 73.1872 132.561 83.9422 124.872 91.8867C114.551 93.2862 112.675 81.3968 119.783 74.0487Z" fill="#141438"/>
<path d="M108.676 89C112.954 91.0849 113.454 95.5248 111.247 99.4879C109.777 102.085 107.345 103.954 104.512 104.664C101.208 105.461 99.9757 104.807 97.1548 103.06C95.5442 100.732 93.6372 98.5923 94.9926 95.8166C97.5292 95.1438 100.603 97.5392 104.417 97.5712C105.817 96.5613 107.643 91.202 108.676 89Z" fill="#141438"/>
</svg>
