<svg viewBox="0 0 1920 22" xmlns="http://www.w3.org/2000/svg" fill="none">
  <path d="M0,18 C40,18 40,2 80,2 C120,2 120,18 160,18 C200,18 200,2 240,2 C280,2 280,18 320,18 C360,18 360,2 400,2 C440,2 440,18 480,18 C520,18 520,2 560,2 C600,2 600,18 640,18 C680,18 680,2 720,2 C760,2 760,18 800,18 C840,18 840,2 880,2 C920,2 920,18 960,18 C1000,18 1000,2 1040,2 C1080,2 1080,18 1120,18 C1160,18 1160,2 1200,2 C1240,2 1240,18 1280,18 C1320,18 1320,2 1360,2 C1400,2 1400,18 1440,18 C1480,18 1480,2 1520,2 C1560,2 1560,18 1600,18 C1640,18 1640,2 1680,2 C1720,2 1720,18 1760,18 C1800,18 1800,2 1840,2 C1880,2 1880,18 1920,18" stroke="#E4EFFF" stroke-width="2.5" vector-effect="non-scaling-stroke"/>
</svg>
